<svg width="728" height="72" viewBox="0 0 728 72" fill="none" xmlns="http://www.w3.org/2000/svg">
<path d="M18.1617 69.2308H4.29686C3.11818 69.2308 2.2497 68.9796 1.69138 68.4775C1.1951 67.9126 0.94696 67.0339 0.94696 65.8412V4.82953C0.94696 3.6369 1.1951 2.78952 1.69138 2.28737C2.2497 1.72245 3.11818 1.43999 4.29686 1.43999H19.2783C20.2709 1.43999 21.0773 1.65968 21.6977 2.09906C22.3801 2.53845 23.0004 3.26029 23.5587 4.2646L31.9335 19.6117C32.2436 20.1766 32.4918 20.5846 32.6779 20.8357C32.9261 21.0868 33.2362 21.2123 33.6084 21.2123H34.4459C34.8181 21.2123 35.0973 21.0868 35.2834 20.8357C35.5316 20.5846 35.8108 20.1766 36.1209 19.6117L44.4025 4.2646C44.9609 3.26029 45.5501 2.53845 46.1705 2.09906C46.8528 1.65968 47.6903 1.43999 48.683 1.43999H63.7575C64.9362 1.43999 65.7737 1.72245 66.2699 2.28737C66.8282 2.78952 67.1074 3.6369 67.1074 4.82953V65.8412C67.1074 67.0339 66.8282 67.9126 66.2699 68.4775C65.7737 68.9796 64.9362 69.2308 63.7575 69.2308H49.4274C48.2486 69.2308 47.3802 68.9796 46.8219 68.4775C46.3257 67.9126 46.0775 67.0339 46.0775 65.8412V32.6991L40.5874 42.9618C40.0291 44.0288 39.3468 44.8136 38.5402 45.3157C37.7958 45.7552 36.8343 45.9748 35.6556 45.9748H31.9335C30.7547 45.9748 29.7623 45.7552 28.9558 45.3157C28.2114 44.8136 27.56 44.0288 27.0017 42.9618L21.5116 32.6991V65.8412C21.5116 67.0339 21.2324 67.9126 20.6741 68.4775C20.1778 68.9796 19.3404 69.2308 18.1617 69.2308ZM113.879 69.2308H98.8041C97.6254 69.2308 96.757 68.9796 96.1986 68.4775C95.7025 67.9126 95.4542 67.0339 95.4542 65.8412V53.7895L81.2172 34.488C79.7905 32.5421 78.8287 30.8473 78.3325 29.4037C77.8982 27.9601 77.6812 25.7945 77.6812 22.9071V4.82953C77.6812 3.6369 77.9294 2.78952 78.4256 2.28737C78.9839 1.72245 79.8523 1.43999 81.0311 1.43999H95.3612C96.5399 1.43999 97.3774 1.72245 97.8736 2.28737C98.4319 2.78952 98.7111 3.6369 98.7111 4.82953V20.2708C98.7111 20.8985 98.742 21.5575 98.8041 22.248C98.8662 22.9384 99.1142 23.5975 99.5485 24.2252L103.829 31.0043C104.139 31.5692 104.449 31.9771 104.759 32.2283C105.132 32.4795 105.566 32.6049 106.062 32.6049H106.993C107.489 32.6049 107.892 32.4795 108.202 32.2283C108.575 31.9771 108.916 31.5692 109.226 31.0043L113.506 24.2252C113.941 23.5975 114.189 22.9384 114.251 22.248C114.313 21.5575 114.344 20.8985 114.344 20.2708V4.82953C114.344 3.6369 114.592 2.78952 115.088 2.28737C115.647 1.72245 116.515 1.43999 117.694 1.43999H131.559C132.737 1.43999 133.575 1.72245 134.071 2.28737C134.629 2.78952 134.909 3.6369 134.909 4.82953V22.9071C134.909 25.7945 134.66 27.9601 134.164 29.4037C133.668 30.8473 132.737 32.5421 131.373 34.488L117.229 53.8837V65.8412C117.229 67.0339 116.949 67.9126 116.391 68.4775C115.895 68.9796 115.057 69.2308 113.879 69.2308ZM176.603 69.2308H147.199C146.02 69.2308 145.152 68.9796 144.593 68.4775C144.097 67.9126 143.849 67.0339 143.849 65.8412V54.8252C143.849 53.6325 144.097 52.7851 144.593 52.2831C145.152 51.7181 146.02 51.4357 147.199 51.4357H172.23C173.036 51.4357 173.626 51.1845 173.998 50.6824C174.432 50.1175 174.649 49.4584 174.649 48.7052C174.649 47.6382 174.432 46.8534 173.998 46.3514C173.626 45.8493 173.036 45.5668 172.23 45.504L158.272 43.5268C153.93 42.899 150.425 41.4554 147.757 39.1957C145.152 36.936 143.849 33.1698 143.849 27.8972V18.0111C143.849 12.6757 145.555 8.59568 148.967 5.77107C152.379 2.88367 157.093 1.43999 163.111 1.43999H189.166C190.344 1.43999 191.182 1.72245 191.678 2.28737C192.236 2.78952 192.516 3.6369 192.516 4.82953V16.0338C192.516 17.2265 192.236 18.1052 191.678 18.6701C191.182 19.1723 190.344 19.4234 189.166 19.4234H167.484C166.678 19.4234 166.057 19.7058 165.623 20.2708C165.189 20.7729 164.972 21.432 164.972 22.248C164.972 23.064 165.189 23.7544 165.623 24.3194C166.057 24.8843 166.678 25.1981 167.484 25.2609L181.349 27.144C185.691 27.7718 189.197 29.2154 191.864 31.4751C194.531 33.7348 195.865 37.5009 195.865 42.7735V52.6597C195.865 57.9952 194.128 62.1064 190.654 64.9938C187.242 67.8185 182.559 69.2308 176.603 69.2308ZM263.086 51.4357C263.086 54.3232 262.651 56.9595 261.783 59.3446C260.977 61.6672 259.488 63.6757 257.317 65.3705C255.207 67.0024 252.292 68.2892 248.57 69.2308C244.847 70.1723 240.102 70.6431 234.333 70.6431C228.563 70.6431 223.818 70.1723 220.095 69.2308C216.373 68.2892 213.427 67.0024 211.255 65.3705C209.146 63.6757 207.657 61.6672 206.789 59.3446C205.982 56.9595 205.579 54.3232 205.579 51.4357V4.82953C205.579 3.6369 205.827 2.78952 206.324 2.28737C206.882 1.72245 207.75 1.43999 208.929 1.43999H223.538C224.717 1.43999 225.554 1.72245 226.051 2.28737C226.609 2.78952 226.888 3.6369 226.888 4.82953V47.7637C226.888 49.019 227.354 50.0862 228.284 50.9649C229.215 51.781 231.293 52.1889 234.519 52.1889C237.806 52.1889 239.916 51.781 240.846 50.9649C241.777 50.0862 242.242 49.019 242.242 47.7637V4.82953C242.242 3.6369 242.49 2.78952 242.986 2.28737C243.545 1.72245 244.413 1.43999 245.592 1.43999H259.736C260.914 1.43999 261.752 1.72245 262.248 2.28737C262.807 2.78952 263.086 3.6369 263.086 4.82953V51.4357ZM293.244 69.2308H278.821C277.642 69.2308 276.774 68.9796 276.216 68.4775C275.718 67.9126 275.471 67.0339 275.471 65.8412V4.82953C275.471 3.6369 275.718 2.78952 276.216 2.28737C276.774 1.72245 277.642 1.43999 278.821 1.43999H307.295C315.73 1.43999 321.5 3.13476 324.603 6.5243C327.704 9.91383 329.256 14.3391 329.256 19.8V31.8517C329.256 37.3126 327.704 41.7378 324.603 45.1274C321.5 48.5169 315.73 50.2117 307.295 50.2117H296.594V65.8412C296.594 67.0339 296.315 67.9126 295.757 68.4775C295.259 68.9796 294.421 69.2308 293.244 69.2308ZM296.408 19.0468V33.264H304.783C306.581 33.264 307.761 32.7932 308.319 31.8517C308.877 30.9101 309.156 29.8432 309.156 28.6504V23.6603C309.156 22.4677 308.877 21.4006 308.319 20.4591C307.761 19.5175 306.581 19.0468 304.783 19.0468H296.408ZM385.424 69.2308H342.248C341.071 69.2308 340.2 68.9796 339.642 68.4775C339.147 67.9126 338.898 67.0339 338.898 65.8412V4.82953C338.898 3.6369 339.147 2.78952 339.642 2.28737C340.2 1.72245 341.071 1.43999 342.248 1.43999H385.424C386.604 1.43999 387.441 1.72245 387.936 2.28737C388.495 2.78952 388.774 3.6369 388.774 4.82953V15.8455C388.774 17.0382 388.495 17.9169 387.936 18.4818C387.441 18.984 386.604 19.2351 385.424 19.2351H359.741V26.4849H377.887C379.066 26.4849 379.904 26.7674 380.399 27.3323C380.957 27.8344 381.237 28.6817 381.237 29.8745V39.9489C381.237 41.1416 380.957 42.0203 380.399 42.5852C379.904 43.0873 379.066 43.3385 377.887 43.3385H359.741V51.4357H385.424C386.604 51.4357 387.441 51.7181 387.936 52.2831C388.495 52.7851 388.774 53.6325 388.774 54.8252V65.8412C388.774 67.0339 388.495 67.9126 387.936 68.4775C387.441 68.9796 386.604 69.2308 385.424 69.2308ZM420.814 18.3877V30.4394H427.793C429.405 30.4394 430.492 30.0315 431.05 29.2154C431.608 28.3367 431.887 27.2695 431.887 26.0141V22.8129C431.887 21.5575 431.608 20.5218 431.05 19.7058C430.492 18.8271 429.405 18.3877 427.793 18.3877H420.814ZM417.464 69.2308H403.134C401.955 69.2308 401.087 68.9796 400.529 68.4775C400.031 67.9126 399.784 67.0339 399.784 65.8412V4.82953C399.784 3.6369 400.031 2.78952 400.529 2.28737C401.087 1.72245 401.955 1.43999 403.134 1.43999H434.121C441.067 1.43999 445.845 2.91507 448.451 5.86522C451.116 8.75261 452.452 12.5188 452.452 17.1637V21.4948C452.452 24.1311 452.047 26.3908 451.242 28.2738C450.498 30.0941 449.162 31.4122 447.241 32.2283C450.591 32.6049 453.289 33.9859 455.337 36.3711C457.444 38.7562 458.5 41.9261 458.5 45.8806V65.8412C458.5 67.0339 458.221 67.9126 457.663 68.4775C457.165 68.9796 456.327 69.2308 455.151 69.2308H440.727C439.548 69.2308 438.68 68.9796 438.122 68.4775C437.624 67.9126 437.378 67.0339 437.378 65.8412V51.4357C437.378 50.0547 437.098 49.0505 436.54 48.4228C436.042 47.7324 435.144 47.3871 433.841 47.3871H420.814V65.8412C420.814 67.0339 420.535 67.9126 419.977 68.4775C419.479 68.9796 418.641 69.2308 417.464 69.2308ZM486.709 69.2308H472.286C471.106 69.2308 470.239 68.9796 469.68 68.4775C469.185 67.9126 468.936 67.0339 468.936 65.8412V4.82953C468.936 3.6369 469.185 2.78952 469.68 2.28737C470.239 1.72245 471.106 1.43999 472.286 1.43999H486.709C487.889 1.43999 488.726 1.72245 489.221 2.28737C489.78 2.78952 490.059 3.6369 490.059 4.82953V25.2609H505.599V4.82953C505.599 3.6369 505.848 2.78952 506.343 2.28737C506.901 1.72245 507.769 1.43999 508.949 1.43999H523.372C524.551 1.43999 525.389 1.72245 525.884 2.28737C526.443 2.78952 526.722 3.6369 526.722 4.82953V65.8412C526.722 67.0339 526.443 67.9126 525.884 68.4775C525.389 68.9796 524.551 69.2308 523.372 69.2308H508.949C507.769 69.2308 506.901 68.9796 506.343 68.4775C505.848 67.9126 505.599 67.0339 505.599 65.8412V44.9391H490.059V65.8412C490.059 67.0339 489.78 67.9126 489.221 68.4775C488.726 68.9796 487.889 69.2308 486.709 69.2308ZM586.07 69.2308H542.894C541.714 69.2308 540.846 68.9796 540.288 68.4775C539.793 67.9126 539.544 67.0339 539.544 65.8412V4.82953C539.544 3.6369 539.793 2.78952 540.288 2.28737C540.846 1.72245 541.714 1.43999 542.894 1.43999H586.07C587.25 1.43999 588.087 1.72245 588.583 2.28737C589.141 2.78952 589.42 3.6369 589.42 4.82953V15.8455C589.42 17.0382 589.141 17.9169 588.583 18.4818C588.087 18.984 587.25 19.2351 586.07 19.2351H560.388V26.4849H578.533C579.712 26.4849 580.55 26.7674 581.045 27.3323C581.604 27.8344 581.883 28.6817 581.883 29.8745V39.9489C581.883 41.1416 581.604 42.0203 581.045 42.5852C580.55 43.0873 579.712 43.3385 578.533 43.3385H560.388V51.4357H586.07C587.25 51.4357 588.087 51.7181 588.583 52.2831C589.141 52.7851 589.42 53.6325 589.42 54.8252V65.8412C589.42 67.0339 589.141 67.9126 588.583 68.4775C588.087 68.9796 587.25 69.2308 586.07 69.2308ZM621.457 18.3877V30.4394H628.436C630.048 30.4394 631.135 30.0315 631.693 29.2154C632.252 28.3367 632.531 27.2695 632.531 26.0141V22.8129C632.531 21.5575 632.252 20.5218 631.693 19.7058C631.135 18.8271 630.048 18.3877 628.436 18.3877H621.457ZM618.108 69.2308H603.777C602.598 69.2308 601.73 68.9796 601.172 68.4775C600.677 67.9126 600.428 67.0339 600.428 65.8412V4.82953C600.428 3.6369 600.677 2.78952 601.172 2.28737C601.73 1.72245 602.598 1.43999 603.777 1.43999H634.764C641.713 1.43999 646.489 2.91507 649.094 5.86522C651.763 8.75261 653.095 12.5188 653.095 17.1637V21.4948C653.095 24.1311 652.693 26.3908 651.886 28.2738C651.141 30.0941 649.808 31.4122 647.884 32.2283C651.234 32.6049 653.933 33.9859 655.98 36.3711C658.09 38.7562 659.144 41.9261 659.144 45.8806V65.8412C659.144 67.0339 658.865 67.9126 658.306 68.4775C657.811 68.9796 656.973 69.2308 655.794 69.2308H641.371C640.191 69.2308 639.324 68.9796 638.765 68.4775C638.27 67.9126 638.021 67.0339 638.021 65.8412V51.4357C638.021 50.0547 637.742 49.0505 637.183 48.4228C636.688 47.7324 635.788 47.3871 634.485 47.3871H621.457V65.8412C621.457 67.0339 621.178 67.9126 620.62 68.4775C620.125 68.9796 619.287 69.2308 618.108 69.2308ZM725.89 51.4357C725.89 54.3232 725.455 56.9595 724.587 59.3446C723.78 61.6672 722.291 63.6757 720.121 65.3705C718.01 67.0024 715.063 68.2892 711.281 69.2308C707.558 70.1723 702.813 70.6431 697.044 70.6431C691.274 70.6431 686.496 70.1723 682.713 69.2308C678.928 68.2892 675.951 67.0024 673.78 65.3705C671.67 63.6757 670.181 61.6672 669.314 59.3446C668.507 56.9595 668.104 54.3232 668.104 51.4357V19.3292C668.104 16.4418 668.507 13.8369 669.314 11.5145C670.181 9.12923 671.67 7.08922 673.78 5.39445C675.951 3.69968 678.928 2.38152 682.713 1.43999C686.496 0.498447 691.274 0.0276794 697.044 0.0276794C702.813 0.0276794 707.558 0.498447 711.281 1.43999C715.063 2.38152 718.01 3.69968 720.121 5.39445C722.291 7.08922 723.78 9.12923 724.587 11.5145C725.455 13.8369 725.89 16.4418 725.89 19.3292V51.4357ZM689.227 48.0461C689.227 49.3014 689.692 50.3687 690.623 51.2474C691.553 52.0635 693.694 52.4714 697.044 52.4714C700.393 52.4714 702.534 52.0635 703.464 51.2474C704.395 50.3687 704.86 49.3014 704.86 48.0461V22.7188C704.86 21.5261 704.395 20.5218 703.464 19.7058C702.534 18.8271 700.393 18.3877 697.044 18.3877C693.694 18.3877 691.553 18.8271 690.623 19.7058C689.692 20.5218 689.227 21.5261 689.227 22.7188V48.0461Z" fill="white" fill-opacity="0.87"/>
</svg>
